name C:\Users\u0101727\Documents\MyRepositories\paper-ad\trackingsimulations_3d\Results\TrackSim\IK_c1.mot
datacolumns 32
datarows 10
range 3.85000000 3.99400000
endheader
time	pelvis_tilt	pelvis_list	pelvis_rotation	pelvis_tx	pelvis_ty	pelvis_tz	hip_flexion_l	hip_adduction_l	hip_rotation_l	hip_flexion_r	hip_adduction_r	hip_rotation_r	knee_angle_l	knee_angle_r	ankle_angle_l	ankle_angle_r	subtalar_angle_l	subtalar_angle_r	lumbar_extension	lumbar_bending	lumbar_rotation	arm_flex_l	arm_add_l	arm_rot_l	arm_flex_r	arm_add_r	arm_rot_r	elbow_flex_l	elbow_flex_r	pro_sup_l	pro_sup_r	
          3.85000000	          0.29958481	         -3.00816954	          7.11322153	          0.02648096	          0.92210339	         -0.22391339	        -11.50046122	         -4.78359257	          1.37008621	         26.52551480	          4.46239166	         -7.55132201	        -36.09214785	        -22.69985900	         -4.12835160	         -5.97778587	         13.34145216	        -10.97994872	         -3.95743589	          5.52297029	         -8.63298063	         -1.76357346	        -14.53136703	         19.20692282	         -9.28883051	        -15.61460296	         14.50140611	         22.96941590	         11.48136021	         86.51662706	         86.51662706	
          3.86600000	          0.45751408	         -4.04035326	          6.93964345	          0.05023219	          0.92287463	         -0.22265601	         -9.53017299	         -6.02023044	          1.22223593	         25.61594502	          5.89685374	         -7.47770594	        -40.35832120	        -23.99659772	        -10.30453818	         -3.99446631	         11.97869494	        -11.14081083	         -3.76399752	          6.84809727	         -8.19247758	         -2.25984765	        -14.03136803	         19.48249565	         -9.06183128	        -15.90921509	         14.48220153	         21.88490184	         11.80097358	         86.51662706	         86.51662706	
          3.88200000	          0.65007365	         -4.88795093	          6.85761268	          0.07311759	          0.92421241	         -0.22165713	         -7.20419570	         -6.87055905	          1.78929564	         24.33377829	          7.08362653	         -7.50945034	        -44.68769042	        -24.69342644	        -15.54657410	         -1.98922060	         10.74078488	        -10.94367398	         -3.75172018	          7.95735647	         -7.77209983	         -2.62212227	        -13.59574271	         19.90428042	         -8.73038728	        -16.20419019	         14.34774554	         20.84270973	         12.32451123	         86.51662706	         86.51662706	
          3.89800000	          0.86116186	         -5.58160216	          6.87483288	          0.09506403	          0.92607368	         -0.22088030	         -4.55477011	         -7.38137935	          2.78411538	         22.77458555	          8.06937077	         -7.60106688	        -49.14800693	        -24.86496920	        -18.17357051	         -0.16532681	          9.71123043	        -10.57106615	         -3.90032566	          8.87932416	         -7.36001575	         -2.83614297	        -13.24127204	         20.47316356	         -8.31122606	        -16.50191737	         14.11805397	         19.89026167	         13.07720348	         86.51662706	         86.51662706	
          3.91400000	          1.08697474	         -6.10320518	          7.01223928	          0.11617185	          0.92849354	         -0.22032265	         -1.69680104	         -7.55659959	          4.01314516	         20.99548922	          8.84160013	         -7.73473046	        -53.39301448	        -24.59839167	        -19.13661735	          1.40335906	          8.07517193	        -10.09874689	         -4.18106311	          9.58913339	         -6.98015122	         -2.92535339	        -12.98650506	         21.15334598	         -7.84499605	        -16.79844855	         13.81819328	         19.06759826	         14.08779627	         86.51662706	         86.51662706	
          3.93000000	          1.30458560	         -6.39504671	          7.26510601	          0.13659385	          0.93146525	         -0.21995693	          1.33901722	         -7.35022246	          5.40421042	         19.06527391	          9.34510579	         -7.89464991	        -57.33185599	        -24.00347915	        -18.54425817	          2.73272846	          6.43597972	         -9.53460246	         -4.54019928	         10.01270517	         -6.65069763	         -2.93261390	        -12.84716031	         21.87208684	         -7.37063328	        -17.08162516	         13.47495941	         18.39786614	         15.36367285	         86.51662706	         86.51662706	
          3.94600000	          1.48252246	         -6.43729511	          7.57912142	          0.15653216	          0.93487666	         -0.21969330	          4.48678832	         -6.76844806	          6.79813670	         17.05406865	          9.57232393	         -8.05881624	        -60.78830536	        -23.17977699	        -16.81191795	          3.85321662	          5.07125058	         -8.88216670	         -4.90949197	         10.11778532	         -6.34969071	         -2.91773123	        -12.82380970	         22.53604398	         -6.91916655	        -17.34739119	         13.10945552	         17.90142085	         16.87787067	         86.51662706	         86.51662706	
          3.96200000	          1.59381713	         -6.24239852	          7.87791637	          0.17617489	          0.93855246	         -0.21942500	          7.66659520	         -5.86410786	          8.01125652	         15.02372978	          9.54980329	         -8.19719649	        -63.57386315	        -22.21288007	        -14.40945975	          4.79014573	          3.88886621	         -8.15903652	         -5.23195720	          9.91160068	         -6.03000540	         -2.93914185	        -12.90289638	         23.04509219	         -6.50631367	        -17.59862621	         12.73751710	         17.59610028	         18.57698719	         86.51662706	         86.51662706	
          3.97800000	          1.61832584	         -5.83697285	          8.05413953	          0.19565239	          0.94228335	         -0.21900615	         10.80267546	         -4.71763911	          8.89065092	         13.04074637	          9.32515602	         -8.22884751	        -65.55474438	        -21.19725521	        -11.82331483	          5.55680475	          3.01473276	         -7.43343112	         -5.47866913	          9.41731740	         -5.60309478	         -3.04081910	        -13.06347649	         23.30704167	         -6.13391728	        -17.84286108	         12.37305931	         17.49734707	         20.39986661	         86.51662706	         86.51662706	
          3.99400000	          1.55132069	         -5.27019300	          8.03505929	          0.21502775	          0.94585205	         -0.21834985	         13.82133350	         -3.44034191	          9.33248286	         11.16267358	          8.95092948	         -8.10420181	        -66.64104735	        -20.22183053	         -9.11123522	          6.18143396	          2.23478144	         -6.74857941	         -5.64513103	          8.69109119	         -5.01123177	         -3.24414307	        -13.27810567	         23.26499521	         -5.78628710	        -18.09439001	         12.02383684	         17.60470251	         22.28944080	         86.51662706	         86.51662706	
